<svg fill="none" height="18" viewBox="0 0 24 24" width="24" xmlns="http://www.w3.org/2000/svg">
<path clip-rule="evenodd" d="M3.42 5h11.521c.325 0 .588.263.588.588v1.177h3.352c.368 0 .691.243.792.597l1.009 3.53c.118.02.228.077.314.163l.832.832c.11.11.172.26.172.415v3.875a.588.588 0 01-.588.588h-1.765a2.353 2.353 0 01-4.706 0H9.06a2.353 2.353 0 11-4.706 0H2.588A.588.588 0 012 16.177V6.42a.59.59 0 01.172-.416l.832-.832c.11-.11.26-.172.416-.172zm16.035 5.882l-.84-2.94H15.53v2.352c0 .325.264.588.589.588zm-2.16 4.706a1.177 1.177 0 110 2.353 1.177 1.177 0 010-2.353zM5.528 16.765a1.176 1.176 0 102.353 0 1.176 1.176 0 00-2.353 0z" fill-rule="evenodd"/>
</svg>