<svg xmlns="http://www.w3.org/2000/svg" viewBox="0 0 512 512"><path d="M458.208 117.504L264.726 2.399a17.07 17.07 0 00-17.451 0L53.792 117.504a17.07 17.07 0 00-8.341 14.668v65.707c0 138.394 79.96 264.796 204.387 312.97a17.067 17.067 0 0012.324 0c124.125-48.054 204.386-174.182 204.386-312.97v-65.707a17.064 17.064 0 00-8.34-14.668zM340.317 217.65L233.352 324.616c-6.665 6.665-17.471 6.665-24.136 0l-37.54-37.539c-6.665-6.664-6.665-17.471 0-24.136 6.665-6.664 17.472-6.664 24.136 0l25.471 25.471 94.898-94.898c6.664-6.664 17.471-6.664 24.136 0 6.666 6.666 6.666 17.472 0 24.136z"/></svg>