<svg xmlns="http://www.w3.org/2000/svg" viewBox="0 0 25 25" width="512" height="512"><path d="M7 18v-6.09a6.23 6.23 0 00.62-.15A6.28 6.28 0 0011 9.57V18zm0 1v1.86A2.09 2.09 0 009 23a2.1 2.1 0 002-2.18V19zm-1.49-7.93a6.55 6.55 0 01-2.61-.54A1.51 1.51 0 012 9.15V3.92a1.51 1.51 0 01.9-1.38A6.55 6.55 0 015.51 2c7.26 0 7.34 9.07 0 9.07zM6 6.5a.5.5 0 00-.5-.5h-1a.5.5 0 00-.5.5.51.51 0 00.5.5h1a.5.5 0 00.5-.5zM18 18v-6.09a6.23 6.23 0 01-.62-.15A6.28 6.28 0 0114 9.57V18zm-4 1v1.86A2.1 2.1 0 0016 23a2.09 2.09 0 002-2.18V19zm5.48-17a6.55 6.55 0 012.61.54A1.51 1.51 0 0123 3.92v5.23a1.51 1.51 0 01-.91 1.38 6.55 6.55 0 01-2.61.54c-7.34 0-7.26-9.07 0-9.07zm0 5h1a.51.51 0 00.5-.5.5.5 0 00-.5-.5h-1a.5.5 0 00-.5.5.5.5 0 00.52.5z" data-name="Layer 4"/></svg>